<svg width="339" height="205" viewBox="0 0 339 205" fill="none" xmlns="http://www.w3.org/2000/svg">
<ellipse cx="61.5826" cy="59.5878" rx="61.5826" ry="59.5878" transform="matrix(0.999564 -0.0295117 0.0253741 0.999678 0.595917 79.2689)" fill="white"/>
<path d="M209.524 72.7312C210.531 112.414 176.976 145.597 134.577 146.849C92.1785 148.101 56.9909 116.947 55.9837 77.2644C54.9765 37.582 88.531 4.39831 130.93 3.1465C173.329 1.89469 208.516 33.0488 209.524 72.7312Z" fill="white"/>
<ellipse cx="61.7595" cy="78.6859" rx="61.7595" ry="78.6859" transform="matrix(0.999564 -0.0295117 0.0253741 0.999678 164.109 44.7448)" fill="white"/>
<ellipse cx="47.5073" cy="48.5215" rx="47.5073" ry="48.5215" transform="matrix(0.999564 -0.0295117 0.0253741 0.999678 241.143 84.0895)" fill="white"/>
<ellipse cx="54.6334" cy="49.3727" rx="54.6334" ry="49.3727" transform="matrix(0.999564 -0.0295117 0.0253741 0.999678 88.0355 105.642)" fill="white"/>
<path d="M101.452 177.142C48.652 193.142 13.452 163.975 2.452 144.642C3.952 157.142 4.952 173.642 38.452 192.142C59.6067 203.824 89.952 193.142 101.452 185.142C132.952 220.642 175.952 199.642 187.952 182.142C196.952 189.142 202.952 198.142 227.452 200.642C247.052 202.642 266.119 185.308 272.952 176.642C300.952 187.842 321.952 169.475 328.952 158.642C304.552 175.842 279.619 173.142 270.452 170.642C245.652 195.442 205.285 182.808 187.952 174.142C152.752 200.142 115.619 186.142 101.452 177.142Z" fill="#BAD4DD"/>
</svg>
